<?xml version="1.0" encoding="UTF-8"?>
<svg id="Layer_1" data-name="Layer 1" xmlns="http://www.w3.org/2000/svg" viewBox="0 0 200 26.15">
  <defs>
    <style>
      .cls-1 {
        fill: #fff;
      }
    </style>
  </defs>
  <rect class="cls-1" y=".63" width="8.29" height="24.9"/>
  <polygon class="cls-1" points="27.14 12.02 18.2 .63 10.54 .63 10.54 25.52 18.83 25.52 18.83 14.13 27.78 25.52 35.41 25.52 35.41 .63 27.14 .63 27.14 12.02"/>
  <polygon class="cls-1" points="45.94 8.02 52.97 8.02 52.97 .63 37.65 .63 37.65 25.52 45.94 25.52 45.94 18.56 52.34 18.56 52.34 11.16 45.94 11.16 45.94 8.02"/>
  <path class="cls-1" d="M71.3,15.04c-.27.6-.64,1.13-1.11,1.58-.47.45-1.02.8-1.64,1.05-1.23.49-2.71.49-3.93,0-.62-.25-1.15-.59-1.62-1.04-.46-.44-.83-.97-1.1-1.58-.27-.6-.4-1.24-.4-1.97s.13-1.37.4-1.97c.27-.61.64-1.14,1.1-1.58.46-.44,1-.79,1.61-1.04.61-.25,1.28-.37,1.97-.37s1.35.13,1.97.37c.62.25,1.17.6,1.64,1.05.47.44.84.97,1.11,1.57.14.32.24.64.31.99h8.6c-.1-1.46-.42-2.86-.97-4.16-.68-1.58-1.64-2.98-2.85-4.16-1.21-1.18-2.67-2.11-4.35-2.78-1.67-.66-3.5-.99-5.45-.99s-3.81.33-5.47,1c-1.66.66-3.12,1.6-4.32,2.78-1.2,1.18-2.15,2.58-2.83,4.16-.68,1.59-1.02,3.31-1.02,5.14s.34,3.56,1.02,5.14c.67,1.58,1.63,2.98,2.83,4.16,1.2,1.18,2.66,2.12,4.32,2.78,1.66.66,3.5,1,5.47,1s3.79-.33,5.45-.99c1.67-.66,3.13-1.6,4.35-2.78,1.21-1.18,2.17-2.58,2.85-4.16.55-1.3.87-2.7.97-4.16h-8.61c-.07.35-.17.68-.31.99Z"/>
  <rect class="cls-1" x="81.49" y=".63" width="8.29" height="11.47"/>
  <polygon class="cls-1" points="81.49 25.52 96.78 25.52 96.78 18.13 89.78 18.13 89.78 14.06 81.49 14.06 81.49 25.52"/>
  <rect class="cls-1" x="137.06" y="14.06" width="8.29" height="11.47"/>
  <polygon class="cls-1" points="118.92 8.02 123.85 8.02 123.85 12.09 132.14 12.09 132.14 8.02 137.06 8.02 137.06 12.09 145.35 12.09 145.35 .63 137.54 .63 137.06 .63 118.92 .63 118.44 .63 110.66 .63 110.66 12.09 118.92 12.09 118.92 8.02"/>
  <rect class="cls-1" x="123.85" y="14.06" width="8.29" height="11.47"/>
  <rect class="cls-1" x="96.91" y=".63" width="8.29" height="11.47"/>
  <path class="cls-1" d="M110.59,15.98c-.04.53-.16,1.02-.35,1.43-.16.35-.4.63-.74.85-.22.14-.67.32-1.57.32s-1.37-.18-1.59-.32c-.34-.22-.57-.49-.72-.82-.19-.42-.3-.91-.34-1.45-.05-.65-.07-1.29-.07-1.92h-8.29v.8c0,3.81.93,6.68,2.77,8.52,1.84,1.84,4.61,2.77,8.25,2.77s6.41-.93,8.24-2.77c1.83-1.84,2.75-4.7,2.75-8.52v-.8h-8.26c0,.62-.02,1.26-.07,1.92Z"/>
  <path class="cls-1" d="M170.03,3.77c-1.21-1.18-2.67-2.11-4.35-2.78-1.67-.66-3.5-.99-5.45-.99s-3.81.33-5.47,1c-1.66.66-3.12,1.6-4.32,2.78-1.2,1.18-2.15,2.58-2.83,4.16-.55,1.3-.87,2.69-.97,4.16h8.6c.07-.34.17-.67.31-.99.27-.61.64-1.14,1.1-1.58.46-.44,1-.79,1.61-1.04.61-.25,1.28-.37,1.97-.37s1.35.13,1.97.37c.62.25,1.17.6,1.64,1.05.47.44.84.97,1.11,1.57.27.6.4,1.25.4,1.97s-.13,1.37-.4,1.97c-.27.6-.64,1.13-1.11,1.58-.47.45-1.02.8-1.64,1.05-1.23.49-2.71.49-3.93,0-.62-.25-1.15-.59-1.62-1.04-.46-.44-.83-.97-1.1-1.58-.14-.31-.24-.64-.31-.99h-8.6c.1,1.46.42,2.86.97,4.16.68,1.58,1.63,2.98,2.83,4.16,1.2,1.18,2.66,2.12,4.32,2.78,1.66.66,3.5,1,5.47,1s3.79-.33,5.45-.99c1.67-.66,3.13-1.6,4.35-2.78,1.21-1.18,2.17-2.58,2.85-4.16.68-1.59,1.02-3.32,1.02-5.14s-.34-3.55-1.02-5.14c-.68-1.58-1.63-2.98-2.85-4.16Z"/>
  <polygon class="cls-1" points="191.74 .63 191.74 12.02 182.79 .63 175.13 .63 175.13 25.52 183.42 25.52 183.42 14.13 192.37 25.52 200 25.52 200 .63 191.74 .63"/>
</svg>